<svg data-v-423bf9ae="" xmlns="http://www.w3.org/2000/svg" viewBox="0 0 302.09927384955955 60" class="font"><!----><!----><!----><g data-v-423bf9ae="" id="5647eb63-4125-4958-86ea-691b073f84b2" fill="black" transform="matrix(4.882017915885615,0,0,4.882017915885615,-0.0000019913080961941887,-14.206672792672677)"><path d="M8.33 5.54L8.33 5.54Q8.23 5.54 8.17 5.48Q8.11 5.42 8.11 5.35Q8.11 5.28 8.18 5.15Q8.25 5.03 8.25 4.91L8.25 4.91Q8.25 4.59 7.92 4.44Q7.59 4.30 7.24 4.30L7.24 4.30Q6.20 4.30 5.08 5.00Q3.95 5.70 3.75 6.68L3.75 6.68Q3.82 7.27 4.33 7.78Q4.84 8.29 5.52 8.66Q6.19 9.03 6.85 9.41Q7.50 9.79 7.95 10.30Q8.40 10.82 8.40 11.36Q8.40 11.90 8.01 12.41Q7.62 12.92 7.23 13.27Q6.85 13.62 6.85 13.64Q6.85 13.66 6.89 13.66L6.89 13.66Q7.74 13.66 9.23 12.73L9.23 12.73L9.37 12.63Q9.46 12.57 9.51 12.57Q9.56 12.57 9.62 12.66Q9.67 12.74 9.67 12.84Q9.67 12.94 9.49 13.03L9.49 13.03Q8.68 13.80 6.46 14.50Q4.24 15.20 2.45 15.20L2.45 15.20Q0 15.20 0 13.78L0 13.78Q0 13.57 0.42 13.17L0.42 13.17Q1.06 12.59 1.20 12.59Q1.34 12.59 1.92 12.94Q2.49 13.29 3.36 13.64Q4.23 13.99 5.08 13.99Q5.94 13.99 6.39 13.45Q6.85 12.92 6.85 12.36Q6.85 11.80 6.37 11.35Q5.89 10.91 5.21 10.56Q4.54 10.22 3.85 9.86Q3.16 9.49 2.69 8.97Q2.21 8.46 2.21 7.84L2.21 7.84Q2.21 6.85 3.32 5.75Q4.42 4.66 5.85 3.99Q7.28 3.32 8.29 3.32L8.29 3.32Q9.55 3.32 9.55 4.16L9.55 4.16Q9.55 4.66 9.09 5.10Q8.64 5.54 8.33 5.54ZM10.16 6.19L10.16 6.19Q9.59 6.19 9.59 9.98L9.59 9.98L9.59 10.82Q9.95 9.90 10.27 8.78Q10.58 7.66 10.58 6.92Q10.58 6.19 10.16 6.19ZM9.73 13.44L9.73 13.44Q9.87 13.44 10.54 12.52Q11.21 11.59 11.40 11.58Q11.58 11.58 11.76 11.89Q11.94 12.19 12.12 12.56Q12.29 12.94 12.68 13.25Q13.08 13.57 13.47 13.57Q13.86 13.57 13.94 13.51Q14.03 13.45 14.08 13.45Q14.13 13.45 14.13 13.57L14.13 13.57Q14.11 13.85 13.68 14.24Q13.24 14.64 12.53 14.64L12.53 14.64Q11.33 14.64 10.85 13.26L10.85 13.26Q10.81 13.17 10.77 13.17Q10.74 13.17 10.67 13.23Q10.60 13.29 10.37 13.55Q10.15 13.82 9.92 14.10Q9.69 14.38 9.63 14.43Q9.58 14.49 9.42 14.49Q9.27 14.49 9.25 14.32L9.25 14.32Q9.13 13.06 9.13 11.68Q9.13 10.30 9.16 9.55Q9.20 8.79 9.31 7.60Q9.42 6.41 9.71 5.66Q10.00 4.90 10.43 4.90L10.43 4.90Q11.34 4.90 11.34 6.17L11.34 6.17Q11.34 7.27 10.75 8.92Q10.16 10.58 9.62 11.55L9.62 11.55Q9.67 13.44 9.73 13.44ZM17.29 12.33L17.29 12.33L17.23 12.73Q17.23 12.98 17.45 13.25Q17.67 13.52 17.96 13.52L17.96 13.52Q18.19 13.52 18.33 13.43L18.33 13.43Q18.63 13.22 18.71 13.14Q18.79 13.06 18.96 13.06Q19.14 13.06 19.14 13.19L19.14 13.19Q19.14 13.33 18.48 14.07L18.48 14.07Q18.27 14.31 17.86 14.57Q17.46 14.84 17.14 14.84Q16.83 14.84 16.67 14.73Q16.51 14.63 16.44 14.41L16.44 14.41Q16.35 14.10 16.35 13.65L16.35 13.65Q16.35 13.59 16.28 13.59Q16.21 13.59 15.96 13.87L15.96 13.87Q15.18 14.69 14.69 14.69Q14.21 14.69 13.95 14.43Q13.69 14.18 13.69 13.79L13.69 13.79Q13.69 13.10 14.06 12.48Q14.42 11.86 14.92 11.48L14.92 11.48Q16.04 10.65 16.66 10.65L16.66 10.65Q17.58 10.68 17.58 11.31L17.58 11.31Q17.58 11.54 17.39 11.75Q17.19 11.97 17.02 11.97Q16.86 11.97 16.56 11.68Q16.27 11.38 15.92 11.38Q15.57 11.38 15.34 11.67Q15.12 11.96 15.12 12.40L15.12 12.40Q15.12 13.13 15.89 13.13L15.89 13.13Q16.20 13.13 16.40 12.98Q16.60 12.82 16.69 12.64L16.69 12.64Q16.93 12.17 17.12 12.17L17.12 12.17Q17.29 12.17 17.29 12.33ZM21.91 13.93L21.92 13.71Q21.92 13.10 21.79 13.10Q21.66 13.10 21.43 13.45Q21.20 13.80 20.93 14.16Q20.66 14.52 20.44 14.52L20.44 14.52Q20.31 14.52 20.05 14.07Q19.80 13.62 19.49 13.18Q19.18 12.74 18.94 12.74L18.94 12.74Q18.87 12.74 18.87 12.67L18.87 12.67Q18.87 12.45 19.40 11.86Q19.94 11.27 20.17 11.27Q20.40 11.27 20.85 12.00Q21.31 12.73 21.46 12.73Q21.62 12.73 22.09 12.15Q22.55 11.58 22.83 11.58Q23.10 11.58 23.23 11.79Q23.37 12.01 23.39 12.26Q23.41 12.52 23.44 12.73Q23.46 12.95 23.55 12.95L23.55 12.95Q23.69 12.95 24.27 12.26Q24.85 11.56 25.12 11.56L25.12 11.56Q25.41 11.56 26.10 12.45L26.10 12.45Q26.35 12.78 26.73 13.05Q27.12 13.33 27.37 13.33Q27.62 13.33 27.86 13.24Q28.10 13.16 28.27 13.16Q28.43 13.16 28.43 13.27L28.43 13.27Q28.43 13.33 28.39 13.37Q28.34 13.41 28.15 13.59Q27.96 13.76 27.84 13.86Q27.72 13.96 27.50 14.13Q27.29 14.31 27.13 14.41L27.13 14.41Q26.71 14.66 26.34 14.66Q25.97 14.66 25.52 14.24Q25.06 13.83 24.73 13.42Q24.40 13.01 24.25 13.01Q24.09 13.01 23.75 13.43Q23.41 13.85 23.05 14.27Q22.69 14.69 22.44 14.69Q22.18 14.69 22.04 14.45Q21.91 14.21 21.91 13.93L21.91 13.93ZM28.27 9.77Q28.06 9.53 28.06 9.18Q28.06 8.83 28.27 8.60Q28.49 8.36 28.81 8.36Q29.13 8.36 29.35 8.60Q29.57 8.83 29.57 9.18Q29.57 9.53 29.35 9.77Q29.13 10.01 28.81 10.01Q28.49 10.01 28.27 9.77ZM31.18 12.82L31.18 12.82Q31.32 12.71 31.43 12.71L31.43 12.71Q31.63 12.71 31.63 12.96L31.63 12.96Q31.63 13.31 30.76 14.01Q29.89 14.70 29.26 14.70Q28.63 14.70 28.28 14.25Q27.93 13.80 27.93 13.10Q27.93 12.39 28.17 11.73Q28.41 11.07 28.64 11.07L28.64 11.07Q28.76 11.09 28.76 11.42Q28.76 11.75 28.85 12.14Q28.95 12.53 29.28 12.89Q29.61 13.24 30.14 13.24Q30.66 13.24 31.18 12.82ZM31.35 12.29L31.35 12.29L30.97 12.32Q30.72 12.32 30.72 12.19L30.72 12.19Q30.72 12.00 31.21 11.45Q31.71 10.89 32.10 10.89L32.10 10.89Q32.27 10.89 32.40 10.99Q32.54 11.09 32.55 11.23L32.55 11.23L32.62 11.86Q32.66 11.91 32.70 11.91Q32.75 11.91 32.93 11.69L32.93 11.69Q33.52 11.00 33.98 11.00L33.98 11.00Q34.16 11.00 34.27 11.06Q34.38 11.12 34.53 11.28Q34.68 11.44 34.69 11.45L34.69 11.45Q34.79 11.41 34.89 11.41L34.89 11.41Q35.04 11.41 35.04 11.60Q35.04 11.79 34.50 12.30Q33.95 12.81 33.68 12.81Q33.42 12.81 33.24 12.57Q33.05 12.33 32.97 12.33L32.97 12.33Q32.65 12.33 32.65 12.67L32.65 12.67Q32.65 12.92 32.88 13.52Q33.11 14.13 33.11 14.24L33.11 14.24Q33.11 14.52 32.82 14.68Q32.54 14.84 32.19 14.84Q31.85 14.84 31.64 14.73Q31.43 14.62 31.43 14.42L31.43 14.42L31.82 12.73Q31.82 12.29 31.35 12.29ZM35.31 9.77Q35.10 9.53 35.10 9.18Q35.10 8.83 35.31 8.60Q35.53 8.36 35.85 8.36Q36.18 8.36 36.39 8.60Q36.61 8.83 36.61 9.18Q36.61 9.53 36.39 9.77Q36.18 10.01 35.85 10.01Q35.53 10.01 35.31 9.77ZM38.22 12.82L38.22 12.82Q38.36 12.71 38.47 12.71L38.47 12.71Q38.67 12.71 38.67 12.96L38.67 12.96Q38.67 13.31 37.80 14.01Q36.93 14.70 36.30 14.70Q35.67 14.70 35.32 14.25Q34.97 13.80 34.97 13.10Q34.97 12.39 35.21 11.73Q35.45 11.07 35.69 11.07L35.69 11.07Q35.80 11.09 35.80 11.42Q35.80 11.75 35.90 12.14Q35.99 12.53 36.32 12.89Q36.65 13.24 37.18 13.24Q37.70 13.24 38.22 12.82ZM48.12 13.52L48.12 13.52L47.87 13.57Q47.08 13.57 46.60 12.42Q46.12 11.28 46.12 9.51Q46.12 7.74 46.51 5.77L46.51 5.77Q46.51 5.66 46.37 5.66L46.37 5.66Q46.02 5.68 45.92 5.87Q45.82 6.06 45.60 6.83Q45.37 7.60 45.12 9.00Q44.86 10.40 44.86 11.83Q44.86 13.26 45.21 14.10Q45.57 14.94 46.45 14.94L46.45 14.94Q47.04 14.94 47.66 14.55Q48.29 14.17 48.29 13.73L48.29 13.73Q48.29 13.52 48.12 13.52ZM41.99 5.24L41.99 5.24Q43.53 4.41 46.09 3.71Q48.65 3.01 50.58 2.91L50.58 2.91Q50.89 2.95 50.89 3.23Q50.89 3.50 50.73 3.93Q50.57 4.37 50.32 4.38L50.32 4.38Q49.00 4.47 46.00 5.25Q42.99 6.03 41.79 6.90L41.79 6.90Q41.71 6.94 41.64 6.94L41.64 6.94Q41.51 6.94 41.51 6.71Q41.51 6.47 41.70 5.88Q41.89 5.29 41.99 5.24ZM52.44 12.33L52.44 12.33L52.39 12.73Q52.39 12.98 52.61 13.25Q52.82 13.52 53.12 13.52L53.12 13.52Q53.34 13.52 53.48 13.43L53.48 13.43Q53.79 13.22 53.87 13.14Q53.94 13.06 54.12 13.06Q54.29 13.06 54.29 13.19L54.29 13.19Q54.29 13.33 53.63 14.07L53.63 14.07Q53.42 14.31 53.02 14.57Q52.61 14.84 52.30 14.84Q51.98 14.84 51.82 14.73Q51.66 14.63 51.59 14.41L51.59 14.41Q51.51 14.10 51.51 13.65L51.51 13.65Q51.51 13.59 51.44 13.59Q51.37 13.59 51.11 13.87L51.11 13.87Q50.33 14.69 49.85 14.69Q49.36 14.69 49.11 14.43Q48.85 14.18 48.85 13.79L48.85 13.79Q48.85 13.10 49.21 12.48Q49.57 11.86 50.08 11.48L50.08 11.48Q51.20 10.65 51.81 10.65L51.81 10.65Q52.74 10.68 52.74 11.31L52.74 11.31Q52.74 11.54 52.54 11.75Q52.35 11.97 52.18 11.97Q52.01 11.97 51.72 11.68Q51.42 11.38 51.07 11.38Q50.72 11.38 50.50 11.67Q50.27 11.96 50.27 12.40L50.27 12.40Q50.27 13.13 51.04 13.13L51.04 13.13Q51.35 13.13 51.56 12.98Q51.76 12.82 51.84 12.64L51.84 12.64Q52.08 12.17 52.28 12.17L52.28 12.17Q52.44 12.17 52.44 12.33ZM56.80 13.23Q56.91 13.23 57.16 13.06Q57.41 12.89 57.57 12.73L57.57 12.73L57.72 12.57Q57.82 12.47 57.92 12.47L57.92 12.47Q58.09 12.47 58.09 12.67L58.09 12.67Q58.09 12.74 58.07 12.78L58.07 12.78Q57.71 13.66 56.73 14.20Q55.75 14.74 54.98 14.74L54.98 14.74Q53.48 14.74 53.48 13.57L53.48 13.57Q53.48 13.41 53.84 13.08Q54.21 12.74 54.38 12.66L54.38 12.66Q54.49 12.57 54.55 12.57Q54.61 12.57 54.66 12.63Q54.70 12.68 54.75 12.77Q54.81 12.85 54.85 12.91Q54.89 12.96 54.96 13.06Q55.03 13.16 55.11 13.22Q55.19 13.29 55.29 13.34L55.29 13.34Q55.47 13.48 55.67 13.48Q55.87 13.48 55.87 13.24L55.87 13.24Q55.87 12.66 55.44 12.23Q55.01 11.80 54.71 11.80L54.71 11.80Q54.64 11.80 54.57 11.89L54.57 11.89L54.05 12.40Q53.93 12.53 53.87 12.53L53.87 12.53Q53.66 12.53 53.66 12.35L53.66 12.35Q55.16 10.51 55.44 10.51L55.44 10.51Q55.83 10.51 56.34 11.05Q56.84 11.58 56.84 12.11L56.84 12.11Q56.84 12.61 56.76 12.88Q56.69 13.15 56.69 13.19Q56.69 13.23 56.80 13.23ZM57.97 10.92Q58.31 10.08 58.60 8.99Q58.90 7.91 58.90 7.39Q58.90 6.87 58.81 6.64Q58.72 6.40 58.59 6.40L58.59 6.40Q58.13 6.40 57.97 8.97L57.97 8.97L57.97 10.92ZM61.70 12.42L61.70 12.42Q61.63 12.42 61.57 12.49Q61.50 12.57 61.40 12.68Q61.31 12.78 60.98 12.96Q60.66 13.13 60.33 13.13L60.33 13.13Q59.72 13.13 59.30 12.65Q58.87 12.17 58.87 11.92Q58.87 11.68 58.80 11.65L58.80 11.65Q58.73 11.65 58.62 11.86L58.62 11.86Q58.32 12.40 58.32 13.14Q58.32 13.87 58.72 14.29Q59.12 14.70 59.57 14.70L59.57 14.70Q60.34 14.70 61.11 13.89Q61.88 13.09 61.88 12.68L61.88 12.68Q61.88 12.42 61.70 12.42ZM57.99 11.59L57.99 11.59L57.99 11.68Q57.99 11.84 58.02 11.84Q58.06 11.84 58.11 11.79L58.11 11.79Q58.42 10.91 58.88 10.25Q59.35 9.60 59.89 9.60L59.89 9.60Q60.38 9.60 60.38 10.26L60.38 10.26Q60.38 10.50 60.15 10.91Q59.92 11.33 59.71 11.33L59.71 11.33Q59.63 11.33 59.54 11.19Q59.46 11.06 59.25 11.06L59.25 11.06Q58.84 11.06 58.56 11.42Q58.28 11.77 58.16 12.33L58.16 12.33Q57.96 13.29 57.96 14.15L57.96 14.15Q57.96 14.57 57.58 14.57L57.58 14.57Q57.51 14.57 57.51 14.45L57.51 14.45Q57.57 13.54 57.57 12.17L57.57 12.17L57.57 10.18Q57.57 7.59 57.75 6.65L57.75 6.65Q57.96 5.61 58.28 5.31L58.28 5.31Q58.48 5.12 58.74 5.12L58.74 5.12Q59.50 5.12 59.50 6.26Q59.50 7.39 58.98 9.04Q58.45 10.70 57.99 11.59Z"></path></g><!----><!----></svg>